<svg width="24" height="24" viewBox="0 0 24 24" fill="none" xmlns="http://www.w3.org/2000/svg">
<rect width="24" height="24" fill="black"/>
<g id="Dashboard" clip-path="url(#clip0_0_1)">
<rect width="1440" height="1198" transform="translate(-1084 -179)" fill="#FAFBFF"/>
<g id="Product">
<g id="Rectangle 30" filter="url(#filter0_d_0_1)">
<path d="M-707 -21C-707 -37.5685 -693.569 -51 -677 -51H231C247.569 -51 261 -37.5685 261 -21V731C261 747.568 247.569 761 231 761H-677C-693.569 761 -707 747.568 -707 731V-21Z" fill="white"/>
</g>
<g id="Group 24">
<rect id="Rectangle 31" x="-8" y="-7" width="216" height="38" rx="10" fill="#F9FBFF"/>
<g id="search 1">
<path id="Vector" d="M11 19C15.4183 19 19 15.4183 19 11C19 6.58172 15.4183 3 11 3C6.58172 3 3 6.58172 3 11C3 15.4183 6.58172 19 11 19Z" stroke="#7E7E7E" stroke-width="2" stroke-linecap="round" stroke-linejoin="round"/>
<path id="Vector_2" d="M21 21L16.65 16.65" stroke="#7E7E7E" stroke-width="2" stroke-linecap="round" stroke-linejoin="round"/>
</g>
</g>
</g>
</g>
<defs>
<filter id="filter0_d_0_1" x="-767" y="-101" width="1088" height="932" filterUnits="userSpaceOnUse" color-interpolation-filters="sRGB">
<feFlood flood-opacity="0" result="BackgroundImageFix"/>
<feColorMatrix in="SourceAlpha" type="matrix" values="0 0 0 0 0 0 0 0 0 0 0 0 0 0 0 0 0 0 127 0" result="hardAlpha"/>
<feOffset dy="10"/>
<feGaussianBlur stdDeviation="30"/>
<feComposite in2="hardAlpha" operator="out"/>
<feColorMatrix type="matrix" values="0 0 0 0 0.885625 0 0 0 0 0.92625 0 0 0 0 0.975 0 0 0 0.5 0"/>
<feBlend mode="normal" in2="BackgroundImageFix" result="effect1_dropShadow_0_1"/>
<feBlend mode="normal" in="SourceGraphic" in2="effect1_dropShadow_0_1" result="shape"/>
</filter>
<clipPath id="clip0_0_1">
<rect width="1440" height="1198" fill="white" transform="translate(-1084 -179)"/>
</clipPath>
</defs>
</svg>
